<svg width="50" height="50" viewBox="0 0 50 50" fill="none" xmlns="http://www.w3.org/2000/svg">
<g clip-path="url(#clip0)">
<path d="M46.875 33.3334H41.6667V30.2084C41.6667 29.6334 41.2 29.1667 40.625 29.1667H28.125C27.55 29.1667 27.0833 29.6334 27.0833 30.2084V33.3334H16.6667V17.7084C16.6667 17.1334 16.2 16.6667 15.625 16.6667H14.9875L16.6125 11.7875C16.6479 11.6813 16.6667 11.5708 16.6667 11.4583V7.2917C16.6667 6.7167 16.2 6.25 15.625 6.25H10.4167V1.0417C10.4167 0.466699 9.95 0 9.375 0C8.8 0 8.3333 0.466699 8.3333 1.0417V6.25H3.125C2.55 6.25 2.0833 6.7167 2.0833 7.2917V11.4584C2.0833 11.5709 2.10205 11.6813 2.1375 11.7876L3.7625 16.6668H3.125C2.55 16.6668 2.0833 17.1335 2.0833 17.7085V33.3335H1.0417C0.466699 33.3334 0 33.8 0 34.375V48.9583C0 49.5334 0.466699 50 1.0417 50H35.4167V38.5417C35.4167 37.9667 35.8834 37.5 36.4584 37.5H42.7084C43.2834 37.5 43.7501 37.9667 43.7501 38.5417V50H46.8751C47.4501 50 47.9168 49.5333 47.9168 48.9583V34.375C47.9167 33.8 47.45 33.3334 46.875 33.3334V33.3334ZM10.4167 42.7084C10.4167 43.2834 9.95 43.7501 9.375 43.7501H5.2083C4.6333 43.7501 4.1666 43.2834 4.1666 42.7084V38.5417C4.1666 37.9667 4.6333 37.5 5.2083 37.5H9.375C9.95 37.5 10.4167 37.9667 10.4167 38.5417V42.7084ZM12.5 26.0417C12.5 26.6167 12.0333 27.0834 11.4583 27.0834H7.2917C6.7167 27.0834 6.25 26.6167 6.25 26.0417V21.875C6.25 21.3 6.7167 20.8333 7.2917 20.8333H11.4584C12.0334 20.8333 12.5001 21.3 12.5001 21.875V26.0417H12.5ZM11.4583 12.5H7.2917C6.7167 12.5 6.25 12.0334 6.25 11.4584C6.25 10.8834 6.7167 10.4167 7.2917 10.4167H11.4584C12.0334 10.4167 12.5001 10.8834 12.5001 11.4584C12.5001 12.0334 12.0333 12.5 11.4583 12.5ZM20.8333 42.7084C20.8333 43.2834 20.3666 43.7501 19.7916 43.7501H15.625C15.05 43.7501 14.5833 43.2834 14.5833 42.7084V38.5417C14.5833 37.9667 15.05 37.5 15.625 37.5H19.7917C20.3667 37.5 20.8334 37.9667 20.8334 38.5417V42.7084H20.8333ZM31.25 42.7084C31.25 43.2834 30.7833 43.7501 30.2083 43.7501H26.0416C25.4666 43.7501 24.9999 43.2834 24.9999 42.7084V38.5417C24.9999 37.9667 25.4666 37.5 26.0416 37.5H30.2083C30.7833 37.5 31.25 37.9667 31.25 38.5417V42.7084Z" fill="black"/>
<path d="M49.2145 9.2813C47.5062 8.11255 45.6916 7.9688 43.9125 8.83335L38.0083 11.6084L37.8333 11.7125L34.1791 9.8021C32.6521 8.7854 30.9062 8.24585 29.0999 8.24585H29.0979L26.0146 8.33335C25.5708 8.34585 25.1854 8.63755 25.0521 9.0604C24.9188 9.48335 25.0646 9.9437 25.4208 10.2083L31.9063 15.0708L26.8021 17.7229C26.1708 17.6625 24.3458 17.2167 23.4375 16.9937C22.2625 16.7083 22.0813 16.6667 21.875 16.6667H19.7917C19.3522 16.6667 18.9584 16.9437 18.8105 17.3583C18.6625 17.7729 18.7917 18.2354 19.1334 18.5146C20.0647 19.275 24.8439 23.0688 27.4772 23.0688C27.9251 23.0688 28.3209 22.9688 28.598 22.8042L49.2375 12.3105C49.7187 11.973 50.0042 11.4063 50 10.7938C49.9979 10.1834 49.7042 9.6188 49.2145 9.2813V9.2813Z" fill="black"/>
</g>
<defs>
<clipPath id="clip0">
<rect width="50" height="50" fill="white"/>
</clipPath>
</defs>
</svg>
