<svg width="78" height="60" viewBox="0 0 78 60" fill="none" xmlns="http://www.w3.org/2000/svg">
<path d="M18 37.3977L18.2588 36.0637L18.6674 36.0425C20.0162 35.9697 20.853 35.8012 21.1763 35.5365C21.4979 35.2709 22.3485 34.0623 23.7261 31.9087L40.3691 5H41.9416L47.0401 31.5217C47.413 33.4732 47.7897 34.701 48.1694 35.2017C48.5508 35.704 49.3005 35.9849 50.4195 36.0425L50.9569 36.0637L50.6775 37.3977H38.7293L39.01 36.0637H39.6759C41.7579 36.0637 42.7978 35.7191 42.7978 35.0302C42.7978 34.2981 42.6764 33.2706 42.4325 31.9497L41.6087 27.5807H28.3366L25.6415 31.8647C24.5363 33.6023 23.984 34.7222 23.984 35.223C23.984 35.7829 24.8675 36.0637 26.632 36.0637H27.1696L26.8908 37.3977H18ZM29.1928 25.7082H41.2142L38.4394 10.7253L29.1928 25.7082ZM69.1262 37.3977L71.0914 27.5398C69.3076 30.6887 67.3187 33.2077 65.1252 35.0986C62.9347 36.9901 60.8928 37.9349 59.0004 37.9349C57.467 37.9349 56.3175 37.4828 55.5519 36.5783C54.7847 35.6738 54.4024 34.3234 54.4024 32.5272C54.4024 27.8593 56.042 23.5176 59.3237 19.5019C62.6046 15.4873 66.1517 13.4796 69.9624 13.4796C70.3637 13.4796 70.8789 13.5254 71.5095 13.615C72.1408 13.7042 72.892 13.8397 73.7676 14.0184H78L74.4952 31.8194C74.2517 32.997 74.1289 34.0228 74.1289 34.9C74.1289 35.3581 74.2661 35.639 74.5385 35.7392C74.8101 35.8408 75.7071 35.941 77.2291 36.0412L77.616 36.0624L77.3582 37.3978H69.1262V37.3977ZM71.7309 24.3325L73.2212 16.8621C72.3918 16.4235 71.5412 16.0988 70.6702 15.8875C69.7976 15.6763 68.8977 15.57 67.9689 15.57C65.824 15.57 64.0886 16.5389 62.7608 18.4764C61.7032 20.0258 60.7956 22.0926 60.0368 24.6761C59.2789 27.2591 58.9018 29.5838 58.9018 31.6515C58.9018 32.685 59.0733 33.4597 59.4169 33.9764C59.7592 34.4929 60.2752 34.751 60.9634 34.751C63.7003 34.7496 67.2892 31.2775 71.7309 24.3325Z" fill="black"/>
<path d="M21.2509 0H1.2509C0.560899 0 0.000976562 0.560039 0.000976562 1.25004C0.000976562 1.94004 0.561016 2.50008 1.25102 2.50008H21.2511C21.9411 2.50008 22.5011 1.94004 22.5011 1.25004C22.5011 0.560039 21.9409 0 21.2509 0Z" fill="black"/>
<path d="M21.2511 44.5H1.25102C0.561016 44.5 0.000976562 45.06 0.000976562 45.75C0.000976562 46.44 0.561016 47.0001 1.25102 47.0001H21.2511C21.9411 47.0001 22.5011 46.44 22.5011 45.75C22.5011 45.0599 21.9411 44.5 21.2511 44.5Z" fill="black"/>
<path d="M11.251 0C10.561 0 10.001 0.420028 10.001 0.937528V44.0625C10.001 44.58 10.561 45 11.251 45C11.941 45 12.5011 44.58 12.5011 44.0625V0.937528C12.5009 0.420028 11.941 0 11.251 0Z" fill="black"/>
</svg>
