<svg width="60" height="60" viewBox="0 0 60 60" fill="none" xmlns="http://www.w3.org/2000/svg">
<path d="M30 60C13.4573 60 0 46.5427 0 30C0 13.4573 13.4573 0 30 0C46.5427 0 60 13.4573 60 30C60 46.5427 46.5427 60 30 60ZM30 3.75C15.5251 3.75 3.75 15.5251 3.75 30C3.75 44.4749 15.5251 56.25 30 56.25C44.4749 56.25 56.25 44.4749 56.25 30C56.25 15.5251 44.4749 3.75 30 3.75Z" fill="black"/>
<path d="M43.125 31.875H16.875C15.84 31.875 15 31.035 15 30C15 28.965 15.84 28.125 16.875 28.125H43.125C44.16 28.125 45 28.965 45 30C45 31.035 44.16 31.875 43.125 31.875Z" fill="black"/>
</svg>
