<svg width="72" height="64" viewBox="0 0 72 64" fill="none" xmlns="http://www.w3.org/2000/svg">
<g filter="url(#filter0_d)">
<path d="M23.8621 4.1557H48.1379V55.9911H23.8621V4.1557Z" fill="#FDBD40"/>
<path d="M32.6896 43.5506H39.3103V55.9911H32.6896V43.5506Z" fill="#5A6470"/>
<path d="M4 26.9633H23.8621V53.9177H4V26.9633Z" fill="#A7C6D3"/>
<path d="M6.20691 14.5228H19.4483V26.9633H6.20691V14.5228Z" fill="#CFDFE8"/>
<path d="M8.41382 7.26581H17.2414V14.5228H8.41382V7.26581Z" fill="#A7C6D3"/>
<path d="M11.7241 0.00891113H13.931V7.26587H11.7241V0.00891113Z" fill="#5A6470"/>
<path d="M48.1379 26.9633H68V53.9177H48.1379V26.9633Z" fill="#E9686A"/>
<path d="M65.7931 26.9632H52.5517V7.26581L65.7931 11.4126V26.9632Z" fill="#F98C96"/>
<path d="M55.8621 13.4861H58.069V26.9633H55.8621V13.4861Z" fill="#5A6470"/>
<path d="M60.2759 13.4861H62.4828V26.9633H60.2759V13.4861Z" fill="#5A6470"/>
<path d="M7.31036 30.0734H20.5518V32.1468H7.31036V30.0734Z" fill="#5A6470"/>
<path d="M7.31036 34.2203H20.5518V36.2937H7.31036V34.2203Z" fill="#5A6470"/>
<path d="M7.31036 38.3671H20.5518V40.4405H7.31036V38.3671Z" fill="#5A6470"/>
<path d="M7.31036 42.5139H20.5518V44.5873H7.31036V42.5139Z" fill="#5A6470"/>
<path d="M29.3793 10.376H33.7931V14.5228H29.3793V10.376Z" fill="#5A6470"/>
<path d="M38.2069 10.376H42.6207V14.5228H38.2069V10.376Z" fill="#5A6470"/>
<path d="M29.3793 18.6696H33.7931V22.8164H29.3793V18.6696Z" fill="#5A6470"/>
<path d="M38.2069 18.6696H42.6207V22.8164H38.2069V18.6696Z" fill="#5A6470"/>
<path d="M29.3793 26.9633H33.7931V31.1101H29.3793V26.9633Z" fill="#5A6470"/>
<path d="M38.2069 26.9633H42.6207V31.1101H38.2069V26.9633Z" fill="#5A6470"/>
<path d="M29.3793 35.257H33.7931V39.4038H29.3793V35.257Z" fill="#5A6470"/>
<path d="M38.2069 35.257H42.6207V39.4038H38.2069V35.257Z" fill="#5A6470"/>
<path d="M54.7587 47.6974H61.3794V53.9177H54.7587V47.6974Z" fill="#5A6470"/>
<path d="M51.4483 30.0734H53.6552V32.1468H51.4483V30.0734Z" fill="#5A6470"/>
<path d="M55.8621 30.0734H60.2759V32.1468H55.8621V30.0734Z" fill="#5A6470"/>
<path d="M62.4828 30.0734H64.6897V32.1468H62.4828V30.0734Z" fill="#5A6470"/>
<path d="M51.4483 34.2203H53.6552V36.2937H51.4483V34.2203Z" fill="#5A6470"/>
<path d="M55.8621 34.2203H60.2759V36.2937H55.8621V34.2203Z" fill="#5A6470"/>
<path d="M62.4828 34.2203H64.6897V36.2937H62.4828V34.2203Z" fill="#5A6470"/>
<path d="M51.4483 38.3671H53.6552V40.4405H51.4483V38.3671Z" fill="#5A6470"/>
<path d="M55.8621 38.3671H60.2759V40.4405H55.8621V38.3671Z" fill="#5A6470"/>
<path d="M62.4828 38.3671H64.6897V40.4405H62.4828V38.3671Z" fill="#5A6470"/>
<path d="M51.4483 42.5139H53.6552V44.5873H51.4483V42.5139Z" fill="#5A6470"/>
<path d="M55.8621 42.5139H60.2759V44.5873H55.8621V42.5139Z" fill="#5A6470"/>
<path d="M62.4828 42.5139H64.6897V44.5873H62.4828V42.5139Z" fill="#5A6470"/>
</g>
<defs>
<filter id="filter0_d" x="0" y="0" width="72" height="64" filterUnits="userSpaceOnUse" color-interpolation-filters="sRGB">
<feFlood flood-opacity="0" result="BackgroundImageFix"/>
<feColorMatrix in="SourceAlpha" type="matrix" values="0 0 0 0 0 0 0 0 0 0 0 0 0 0 0 0 0 0 127 0"/>
<feOffset dy="4"/>
<feGaussianBlur stdDeviation="2"/>
<feColorMatrix type="matrix" values="0 0 0 0 0 0 0 0 0 0 0 0 0 0 0 0 0 0 0.25 0"/>
<feBlend mode="normal" in2="BackgroundImageFix" result="effect1_dropShadow"/>
<feBlend mode="normal" in="SourceGraphic" in2="effect1_dropShadow" result="shape"/>
</filter>
</defs>
</svg>
