<svg width="58" height="58" viewBox="0 0 58 58" fill="none" xmlns="http://www.w3.org/2000/svg">
<g clip-path="url(#clip0)" filter="url(#filter0_d)">
<path d="M47.5291 18.5286C47.5291 15.8505 46.6695 13.3147 45.0433 11.1952C44.7972 10.8744 44.3374 10.8137 44.0164 11.0599C43.6955 11.3061 43.635 11.7659 43.8811 12.0869C45.3093 13.9484 46.0641 16.1758 46.0641 18.5286C46.0641 21.8075 44.5635 24.8597 42.0097 26.8624C40.8511 24.3824 38.3041 22.6496 35.3753 22.6496H32.1345C30.8102 22.6496 29.7328 21.5722 29.7328 20.2479C29.7328 17.9356 28.8567 15.7394 27.2659 14.0639C26.9678 13.7501 26.6507 13.4611 26.3172 13.1979C28.2141 9.93729 31.6664 7.93613 35.4716 7.93613C37.836 7.93613 40.0722 8.69784 41.9388 10.1389C42.2586 10.3859 42.7187 10.327 42.9661 10.0066C43.2133 9.68651 43.1542 9.22655 42.8339 8.97929C40.7087 7.33847 38.1629 6.47119 35.4716 6.47119C31.1673 6.47119 27.2594 8.72011 25.0922 12.39C23.9095 11.7433 22.5889 11.3757 21.2126 11.3297C18.799 11.2498 16.5125 12.1281 14.7789 13.8048C13.2147 15.3174 12.2844 17.2978 12.1169 19.4415C10.0147 19.6064 8.06332 20.5078 6.56117 22.021C4.89253 23.7021 3.98326 25.9328 4.00074 28.3023C4.03658 33.1298 8.03929 37.0571 12.9236 37.0571H29.8861C30.2907 37.0571 30.6185 36.7293 30.6185 36.3247C30.6185 35.9201 30.2907 35.5923 29.8861 35.5923H12.9236C8.84105 35.5923 5.49546 32.3171 5.46557 28.2913C5.45093 26.3152 6.20922 24.4548 7.60072 23.0529C8.99242 21.651 10.8468 20.8789 12.8221 20.8789C13.2267 20.8789 13.5545 20.551 13.5545 20.1464C13.5545 18.1348 14.351 16.2567 15.7974 14.8578C17.2429 13.4597 19.1472 12.7248 21.1639 12.7939C25.081 12.9248 28.268 16.2686 28.268 20.248C28.268 22.38 30.0026 24.1146 32.1346 24.1146H35.3754C38.5522 24.1146 41.1697 26.6548 41.2103 29.7771C41.2303 31.3252 40.6429 32.784 39.5564 33.8848C38.4694 34.9858 37.019 35.5923 35.4719 35.5923H32.8158C32.4112 35.5923 32.0833 35.9201 32.0833 36.3247C32.0833 36.7293 32.4112 37.0571 32.8158 37.0571H35.4719C37.4138 37.0571 39.2346 36.2959 40.5988 34.9139C41.9629 33.532 42.7003 31.701 42.675 29.7579C42.6686 29.2652 42.6111 28.7842 42.5078 28.3195C45.6611 26.0527 47.5291 22.4318 47.5291 18.5286V18.5286Z" fill="black"/>
<path d="M35.4713 4.70059C35.8759 4.70059 36.2037 4.37275 36.2037 3.96816V0.732422C36.2037 0.327832 35.8759 0 35.4713 0C35.0667 0 34.7389 0.327832 34.7389 0.732422V3.96816C34.7389 4.37266 35.0667 4.70059 35.4713 4.70059Z" fill="black"/>
<path d="M24.6576 8.75068C24.8006 8.89365 24.9881 8.96514 25.1755 8.96514C25.3629 8.96514 25.5504 8.89365 25.6935 8.75068C25.9795 8.46455 25.9795 8.00088 25.6935 7.71484L23.4055 5.42686C23.1194 5.14092 22.6557 5.14092 22.3697 5.42686C22.0836 5.71299 22.0836 6.17666 22.3697 6.4627L24.6576 8.75068Z" fill="black"/>
<path d="M46.285 28.3065C45.9989 28.0206 45.5352 28.0206 45.2492 28.3065C44.9632 28.5926 44.9632 29.0563 45.2492 29.3423L47.5372 31.6303C47.6803 31.7733 47.8678 31.8448 48.0552 31.8448C48.2426 31.8448 48.4301 31.7733 48.5731 31.6303C48.8592 31.3442 48.8592 30.8805 48.5731 30.5945L46.285 28.3065Z" fill="black"/>
<path d="M53.2675 17.7961H50.0317C49.6271 17.7961 49.2993 18.124 49.2993 18.5286C49.2993 18.9332 49.6271 19.261 50.0317 19.261H53.2675C53.6721 19.261 53.9999 18.9332 53.9999 18.5286C53.9999 18.1241 53.6721 17.7961 53.2675 17.7961Z" fill="black"/>
<path d="M47.5372 5.4269L45.2492 7.71489C44.9632 8.00103 44.9632 8.4647 45.2492 8.75074C45.3923 8.8937 45.5798 8.96519 45.7672 8.96519C45.9546 8.96519 46.1421 8.8937 46.2851 8.75074L48.5731 6.46275C48.8592 6.17661 48.8592 5.71294 48.5731 5.4269C48.2869 5.14106 47.8232 5.14106 47.5372 5.4269V5.4269Z" fill="black"/>
<path d="M19.6206 38.9052C19.2586 38.7241 18.8187 38.871 18.6379 39.2327L17.0201 42.4684C16.8392 42.8302 16.9858 43.2702 17.3476 43.4511C17.4528 43.5038 17.5646 43.5287 17.6747 43.5287C17.9433 43.5287 18.202 43.3802 18.3304 43.1236L19.9481 39.8879C20.129 39.526 19.9823 39.0861 19.6206 38.9052V38.9052Z" fill="black"/>
<path d="M27.7098 38.9054C27.3479 38.7245 26.9079 38.8711 26.7271 39.2328L25.1092 42.4685C24.9283 42.8304 25.0749 43.2703 25.4367 43.4513C25.5419 43.5038 25.6537 43.5288 25.7638 43.5288C26.0325 43.5288 26.2911 43.3804 26.4195 43.1237L28.0373 39.888C28.2182 39.5262 28.0715 39.0862 27.7098 38.9054V38.9054Z" fill="black"/>
<path d="M30.9454 45.3765C30.5834 45.1955 30.1436 45.3422 29.9627 45.704L28.3449 48.9397C28.1641 49.3015 28.3107 49.7414 28.6725 49.9224C28.7776 49.975 28.8895 49.9999 28.9995 49.9999C29.2682 49.9999 29.5269 49.8515 29.6552 49.5949L31.273 46.3591C31.4538 45.9974 31.3071 45.5575 30.9454 45.3765Z" fill="black"/>
<path d="M22.8562 45.3765C22.4942 45.1955 22.0544 45.3422 21.8735 45.704L20.2557 48.9397C20.0748 49.3015 20.2215 49.7414 20.5833 49.9224C20.6885 49.975 20.8003 49.9999 20.9103 49.9999C21.179 49.9999 21.4377 49.8515 21.566 49.5949L23.1838 46.3591C23.3646 45.9974 23.2179 45.5575 22.8562 45.3765Z" fill="black"/>
<path d="M35.7988 38.9052C35.4368 38.7241 34.997 38.871 34.8161 39.2327L33.1984 42.4684C33.0174 42.8302 33.1641 43.2702 33.5259 43.4511C33.6311 43.5038 33.7429 43.5287 33.853 43.5287C34.1216 43.5287 34.3803 43.3802 34.5086 43.1236L36.1264 39.8879C36.3072 39.526 36.1606 39.0861 35.7988 38.9052V38.9052Z" fill="black"/>
</g>
<defs>
<filter id="filter0_d" x="0" y="0" width="58" height="58" filterUnits="userSpaceOnUse" color-interpolation-filters="sRGB">
<feFlood flood-opacity="0" result="BackgroundImageFix"/>
<feColorMatrix in="SourceAlpha" type="matrix" values="0 0 0 0 0 0 0 0 0 0 0 0 0 0 0 0 0 0 127 0"/>
<feOffset dy="4"/>
<feGaussianBlur stdDeviation="2"/>
<feColorMatrix type="matrix" values="0 0 0 0 0 0 0 0 0 0 0 0 0 0 0 0 0 0 0.25 0"/>
<feBlend mode="normal" in2="BackgroundImageFix" result="effect1_dropShadow"/>
<feBlend mode="normal" in="SourceGraphic" in2="effect1_dropShadow" result="shape"/>
</filter>
<clipPath id="clip0">
<rect width="50" height="50" fill="white" transform="translate(4)"/>
</clipPath>
</defs>
</svg>
