<svg width="60" height="60" viewBox="0 0 60 60" fill="none" xmlns="http://www.w3.org/2000/svg">
<path d="M52.5 0H7.5C3.35814 0 0 3.35814 0 7.5V52.5C0 56.6419 3.35814 60 7.5 60H52.5C56.6419 60 60 56.6419 60 52.5V7.5C60 3.35814 56.6419 0 52.5 0ZM56.25 52.5C56.25 54.57 54.5719 56.25 52.5 56.25H7.5C5.42814 56.25 3.75 54.57 3.75 52.5V7.5C3.75 5.43 5.42814 3.75 7.5 3.75H52.5C54.5719 3.75 56.25 5.42814 56.25 7.5V52.5ZM45.495 19.3406L29.9719 34.92L14.4487 19.3406C13.7119 18.5999 12.5175 18.5999 11.7806 19.3406C11.0437 20.0812 11.0437 21.2793 11.7806 22.02L28.5431 38.8425C28.937 39.2363 29.4563 39.4049 29.9719 39.3787C30.4856 39.405 31.007 39.2363 31.4006 38.8425L48.1631 22.02C48.9001 21.2794 48.9001 20.0794 48.1631 19.3406C47.4244 18.6 46.2319 18.6 45.495 19.3406Z" fill="black"/>
</svg>
