<svg width="50" height="50" viewBox="0 0 50 50" fill="none" xmlns="http://www.w3.org/2000/svg">
<path d="M25 0C11.1929 0 0 11.1929 0 25C0 38.8071 11.1929 50 25 50C38.8071 50 50 38.8071 50 25C49.9844 11.1994 38.8006 0.015625 25 0ZM25 48.3333C12.1133 48.3333 1.66667 37.8867 1.66667 25C1.66667 12.1133 12.1133 1.66667 25 1.66667C37.8867 1.66667 48.3333 12.1133 48.3333 25C48.3186 37.8805 37.8805 48.3186 25 48.3333Z" fill="black"/>
<path d="M45.8333 24.1666C45.3731 24.1666 45 24.5398 45 25C44.9871 36.0403 36.0403 44.9871 25 45C24.5398 45 24.1666 45.3731 24.1666 45.8333C24.1666 46.2935 24.5398 46.6666 25 46.6666C36.9606 46.6533 46.6533 36.9606 46.6666 25C46.6666 24.5398 46.2935 24.1666 45.8333 24.1666Z" fill="black"/>
<path d="M25 3.33337C13.0394 3.34671 3.34671 13.0394 3.33337 25C3.33337 25.4602 3.7065 25.8334 4.16671 25.8334C4.62692 25.8334 5.00004 25.4602 5.00004 25C5.01285 13.9597 13.9597 5.01285 25 5.00004C25.4602 5.00004 25.8334 4.62692 25.8334 4.16671C25.8334 3.7065 25.4602 3.33337 25 3.33337Z" fill="black"/>
<path d="M25 12.5C23.6193 12.5 22.5 13.6193 22.5 15C22.5 16.3807 23.6193 17.5 25 17.5C26.3807 17.5 27.5 16.3807 27.5 15C27.5 13.6193 26.3807 12.5 25 12.5ZM25 15.8333C24.5398 15.8333 24.1667 15.4602 24.1667 15C24.1667 14.5398 24.5398 14.1667 25 14.1667C25.4602 14.1667 25.8333 14.5398 25.8333 15C25.8333 15.4602 25.4602 15.8333 25 15.8333Z" fill="black"/>
<path d="M29.1666 33.3333H27.5V19.1666H19.1666V21.6666C19.1666 22.5871 19.9128 23.3333 20.8333 23.3333H22.5V37.5H30.8333V35C30.8333 34.0794 30.0871 33.3333 29.1666 33.3333ZM29.1666 35.8333H24.1666V21.6666H20.8333V20.8333H25.8333V35H29.1666V35.8333Z" fill="black"/>
</svg>
