<svg width="60" height="60" viewBox="0 0 60 60" fill="none" xmlns="http://www.w3.org/2000/svg">
<path d="M58.0512 39.1339L52.6826 36.1714L58.0517 33.2079C59.2376 32.5532 59.9454 31.3535 59.9451 29.999C59.9449 28.6449 59.2368 27.4462 58.0514 26.7924L52.6816 23.8292L58.0513 20.8654C59.2369 20.2111 59.9449 19.012 59.9449 17.6579C59.9449 16.3037 59.2369 15.1047 58.0513 14.4503L53.9375 12.1796C53.5129 11.9451 52.9781 12.0995 52.7435 12.5243C52.509 12.9492 52.6633 13.4837 53.0882 13.7183L57.202 15.9891C57.8191 16.3295 58.1874 16.9534 58.1874 17.658C58.1874 18.3625 57.8191 18.9864 57.202 19.3269L32.679 32.862C31.0014 33.7877 28.9982 33.7877 27.3206 32.862L2.79761 19.3268C2.18061 18.9863 1.8124 18.3624 1.8124 17.6579C1.8124 16.9533 2.18061 16.3294 2.79761 15.989L27.321 2.4536C28.9984 1.52686 31.0012 1.52686 32.679 2.45372L50.0115 12.0203C50.4362 12.2548 50.9711 12.1005 51.2056 11.6756C51.4401 11.2506 51.2857 10.7161 50.8608 10.4815L33.5286 0.915254C31.319 -0.305391 28.6807 -0.30539 26.4715 0.915136L1.94846 14.4503C0.762736 15.1047 0.0549122 16.3037 0.0549122 17.6579C0.0549122 19.012 0.762736 20.2111 1.94846 20.8654L7.31807 23.8292L1.94822 26.7923C0.762736 27.4462 0.0546779 28.6449 0.0544435 29.999C0.0540919 31.3535 0.761915 32.5532 1.94799 33.2079L7.31702 36.1714L1.94811 39.134C0.762618 39.7891 0.0549122 40.9885 0.0549122 42.3425C0.0549122 43.6966 0.762618 44.8962 1.94846 45.5514L11.4543 50.7981C11.5889 50.8724 11.7345 50.9076 11.8781 50.9076C12.1879 50.9076 12.4881 50.7436 12.6483 50.4533C12.8828 50.0285 12.7285 49.4939 12.3035 49.2593L2.79808 44.0128C2.18096 43.6718 1.8124 43.0474 1.81252 42.3425C1.81252 41.6376 2.18096 41.0132 2.79773 40.6724L9.1358 37.1752L26.4708 46.7433C27.5759 47.3534 28.7877 47.6583 29.9999 47.6583C31.2119 47.6583 32.4244 47.3533 33.529 46.7434L50.8642 37.1752L57.2019 40.6723C57.8192 41.0132 58.1876 41.6376 58.1876 42.3425C58.1876 43.0474 57.8192 43.6718 57.2023 44.0126L32.6792 57.5465C31.0019 58.4721 28.9982 58.4722 27.3198 57.5465L15.3815 50.9572C14.9566 50.7228 14.422 50.8772 14.1875 51.3019C13.9529 51.7268 14.1073 52.2613 14.5321 52.4959L26.4706 59.0855C27.5757 59.695 28.7877 59.9997 29.9997 59.9997C31.2117 59.9997 32.4238 59.6948 33.5283 59.0853L58.0517 45.5513C59.2372 44.8963 59.9449 43.6967 59.9449 42.3426C59.945 40.9885 59.2372 39.7891 58.0512 39.1339V39.1339ZM32.6795 45.2047C31.0017 46.1311 28.9981 46.1311 27.3199 45.2047L2.79738 31.6694C2.18014 31.3286 1.81181 30.7043 1.81193 29.9994C1.81205 29.295 2.18026 28.6714 2.79714 28.3312L9.13662 24.833L26.4715 34.4007C27.5761 35.0103 28.788 35.3151 29.9998 35.3151C31.2117 35.3151 32.4235 35.0103 33.5283 34.4007L50.863 24.833L57.2026 28.3313C57.8194 28.6714 58.1876 29.295 58.1877 29.9994C58.188 30.7043 57.8195 31.3287 57.2024 31.6694L32.6795 45.2047Z" fill="black" stroke="black"/>
<rect x="0.0544434" y="-0.000244141" width="59.8907" height="59.9999" stroke="black"/>
</svg>
