<?xml version="1.0" encoding="iso-8859-1"?>
<!-- Generator: Adobe Illustrator 19.0.0, SVG Export Plug-In . SVG Version: 6.00 Build 0)  -->
<svg version="1.1" id="Capa_1" xmlns="http://www.w3.org/2000/svg" xmlns:xlink="http://www.w3.org/1999/xlink" x="0px" y="0px"
	 viewBox="0 0 60 60" style="enable-background:new 0 0 60 60;" xml:space="preserve">
<g>
	<path d="M54,46.503H6c-0.553,0-1,0.448-1,1s0.447,1,1,1h48c0.553,0,1-0.448,1-1S54.553,46.503,54,46.503z"/>
	<path d="M49,51.503H11c-0.553,0-1,0.448-1,1s0.447,1,1,1h38c0.553,0,1-0.448,1-1S49.553,51.503,49,51.503z"/>
	<path d="M45,56.503H15c-0.553,0-1,0.448-1,1s0.447,1,1,1h30c0.553,0,1-0.448,1-1S45.553,56.503,45,56.503z"/>
	<path d="M59,41.503h-7.819c2.731-2.951,4.721-6.509,5.784-10.434l0.586-2.252l-2.061,1.129c-0.243,0.134-0.486,0.268-0.735,0.393
		c-11.339,5.68-25.185,1.072-30.864-10.268c-2.531-5.056-3.111-10.848-1.632-16.306l0.615-2.268l-2.061,1.129
		c-11.84,6.488-16.377,21.03-10.33,33.105c1.061,2.118,2.403,4.05,3.996,5.772H1c-0.553,0-1,0.448-1,1s0.447,1,1,1h15.545H49.13H59
		c0.553,0,1-0.448,1-1S59.553,41.503,59,41.503z M17.308,41.503c-2.078-1.9-3.771-4.142-5.035-6.667
		c-5.217-10.416-1.874-22.825,7.54-29.253c-0.892,5.224-0.103,10.605,2.289,15.384c5.953,11.887,20.16,16.964,32.219,11.779
		c-1.274,3.343-3.304,6.334-5.953,8.757H17.308z"/>
</g>
<g>
</g>
<g>
</g>
<g>
</g>
<g>
</g>
<g>
</g>
<g>
</g>
<g>
</g>
<g>
</g>
<g>
</g>
<g>
</g>
<g>
</g>
<g>
</g>
<g>
</g>
<g>
</g>
<g>
</g>
</svg>
