<svg id="_x33_0" enable-background="new 0 0 64 64" height="512" viewBox="0 0 64 64" width="512" xmlns="http://www.w3.org/2000/svg"><g><path d="m58 11h-11.875c-2.066-5.816-7.609-10-14.125-10s-12.059 4.184-14.125 10h-11.875c-2.757 0-5 2.243-5 5v32c0 2.757 2.243 5 5 5h17.898c-.307 1.671-1.362 3.114-2.923 3.895l-.211.105h-7.764c-1.103 0-2 .897-2 2v2c0 1.103.897 2 2 2h38c1.103 0 2-.897 2-2v-2c0-1.103-.897-2-2-2h-7.764l-.211-.105c-1.561-.781-2.616-2.224-2.923-3.895h17.898c2.757 0 5-2.243 5-5v-32c0-2.757-2.243-5-5-5zm-1 6v30h-50v-30h10.051c.518 7.805 7.016 14 14.949 14s14.431-6.195 14.949-14zm-25-13.607c.644.675 1.673 1.891 2.637 3.607h-5.275c.965-1.716 1.994-2.932 2.638-3.607zm3.606 5.607c.699 1.687 1.228 3.697 1.353 6h-9.918c.124-2.303.654-4.313 1.353-6zm-3.606 19.607c-.644-.675-1.674-1.89-2.637-3.607h5.275c-.965 1.717-1.994 2.932-2.638 3.607zm4.918-3.607h4.441c-1.806 1.878-4.165 3.219-6.817 3.747.751-.936 1.609-2.187 2.376-3.747zm-7.46 3.747c-2.653-.528-5.011-1.869-6.817-3.747h4.441c.767 1.56 1.625 2.811 2.376 3.747zm-1.064-5.747c-.699-1.687-1.228-3.697-1.353-6h9.918c-.124 2.303-.654 4.313-1.353 6zm-3.354-8h-5.99c.169-2.198.883-4.242 2.012-6h5.171c-.63 1.728-1.085 3.732-1.193 6zm0 2c.108 2.268.563 4.272 1.193 6h-5.171c-1.129-1.758-1.844-3.802-2.012-6zm17.897 6h-5.171c.631-1.728 1.086-3.732 1.193-6h5.99c-.168 2.198-.883 4.242-2.012 6zm-3.977-8c-.108-2.268-.563-4.272-1.193-6h5.171c1.129 1.758 1.844 3.802 2.012 6zm2.399-8h-4.441c-.767-1.56-1.625-2.811-2.376-3.747 2.652.528 5.011 1.869 6.817 3.747zm-11.901-3.747c-.751.936-1.609 2.187-2.376 3.747h-4.441c1.806-1.878 4.165-3.219 6.817-3.747zm21.543 57.747h-38.001v-2h38zm-11.068-4h-15.865c1.002-1.106 1.662-2.488 1.863-4h12.139c.2 1.512.86 2.894 1.863 4zm21.067-9c0 1.654-1.346 3-3 3h-52c-1.654 0-3-1.346-3-3v-32c0-1.654 1.346-3 3-3h11.302c-.133.651-.207 1.322-.252 2h-10.05c-1.103 0-2 .897-2 2v30c0 1.103.897 2 2 2h50c1.103 0 2-.897 2-2v-30c0-1.103-.897-2-2-2h-10.051c-.045-.678-.119-1.349-.252-2h11.303c1.654 0 3 1.346 3 3z"/><path d="m49 39h-4v-2h4v-2h-6v6h4v2h-4v2h6z"/><path d="m39 41.764-2-4-2 4v-6.764h-2v10h2.618l1.382-2.764 1.382 2.764h2.618v-10h-2z"/><path d="m23 45h8v-2h-6v-2h4v-2h-4v-2h6v-2h-8z"/><path d="m19 41.152-2.307-6.152h-3.693v10h2v-8h.307l3 8h2.693v-10h-2z"/></g></svg>