<svg width="60" height="60" viewBox="0 0 60 60" fill="none" xmlns="http://www.w3.org/2000/svg">
<path d="M31.5867 20.3393C34.0797 20.6039 36.4912 21.4911 38.5603 22.9037C38.7122 23.0072 38.8843 23.0571 39.0551 23.0571C39.3357 23.0571 39.6117 22.9225 39.782 22.6735C40.0558 22.2725 39.9523 21.7259 39.5518 21.4522C37.2433 19.8761 34.553 18.8869 31.7721 18.5911C31.2901 18.5408 30.8566 18.8896 30.8053 19.3725C30.754 19.855 31.1037 20.2881 31.5867 20.3393V20.3393Z" fill="black"/>
<path d="M29.9534 14.6141C30.4386 14.6141 30.8323 14.2209 30.8323 13.7352V10.2539C30.8323 9.76822 30.4386 9.375 29.9534 9.375C29.4677 9.375 29.0745 9.76822 29.0745 10.2539V13.7352C29.0745 14.2209 29.4677 14.6141 29.9534 14.6141Z" fill="black"/>
<path d="M18.2918 17.0957C18.4543 17.3777 18.75 17.5351 19.0535 17.5351C19.2027 17.5351 19.3538 17.4971 19.4925 17.4175C19.9127 17.1744 20.0565 16.637 19.8138 16.2168L18.0734 13.2015C17.8304 12.7813 17.2929 12.6375 16.8727 12.8797C16.4525 13.1228 16.3083 13.6602 16.5509 14.0804L18.2918 17.0957Z" fill="black"/>
<path d="M7.61903 23.6558L10.6339 25.3967C10.7726 25.4764 10.9236 25.5144 11.0724 25.5144C11.3764 25.5144 11.6716 25.3569 11.8346 25.0749C12.0772 24.6547 11.933 24.1173 11.5128 23.8742L8.49793 22.1338C8.07725 21.8912 7.53984 22.0349 7.29722 22.4551C7.05461 22.8758 7.19834 23.4132 7.61903 23.6558Z" fill="black"/>
<path d="M50.8745 35.5358C50.8745 36.0215 51.2682 36.4147 51.7534 36.4147H55.2352C55.7204 36.4147 56.1141 36.0215 56.1141 35.5358C56.1141 35.0505 55.7204 34.6569 55.2352 34.6569H51.7534C51.2682 34.6569 50.8745 35.0505 50.8745 35.5358Z" fill="black"/>
<path d="M4.67102 36.4147H8.15277C8.638 36.4147 9.03168 36.0215 9.03168 35.5358C9.03168 35.0505 8.638 34.6569 8.15277 34.6569H4.67102C4.18579 34.6569 3.79211 35.0505 3.79211 35.5358C3.79211 36.0215 4.18579 36.4147 4.67102 36.4147Z" fill="black"/>
<path d="M48.8338 25.5144C48.9826 25.5144 49.1341 25.4764 49.2724 25.3967L52.2877 23.6558C52.7079 23.4132 52.8521 22.8758 52.609 22.4551C52.3664 22.0349 51.829 21.8912 51.4087 22.1338L48.3935 23.8742C47.9732 24.1173 47.829 24.6547 48.0717 25.0749C48.2346 25.3569 48.5299 25.5144 48.8338 25.5144Z" fill="black"/>
<path d="M40.4136 17.4175C40.5523 17.4971 40.7034 17.5351 40.8526 17.5351C41.1561 17.5351 41.4518 17.3776 41.6143 17.0956L43.3552 14.0804C43.5978 13.6601 43.4536 13.1227 43.0334 12.8796C42.6132 12.637 42.0758 12.7812 41.8327 13.2014L40.0923 16.2167C39.8497 16.637 39.9934 17.1744 40.4136 17.4175V17.4175Z" fill="black"/>
<path d="M22.4076 43.3333H8.15283C7.66714 43.3333 7.27393 43.7269 7.27393 44.2122C7.27393 44.6978 7.66714 45.0911 8.15283 45.0911H22.4076C22.8928 45.0911 23.2865 44.6978 23.2865 44.2122C23.2865 43.7269 22.8928 43.3333 22.4076 43.3333Z" fill="black"/>
<path d="M44.5239 46.3032H34.9219C34.4366 46.3032 34.043 46.6969 34.043 47.1821C34.043 47.6678 34.4366 48.061 34.9219 48.061H44.5239C45.0092 48.061 45.4028 47.6678 45.4028 47.1821C45.4028 46.6969 45.0096 46.3032 44.5239 46.3032Z" fill="black"/>
<path d="M49.6408 48.9532H46.6365C46.1512 48.9532 45.7576 49.3469 45.7576 49.8322C45.7576 50.3178 46.1512 50.7111 46.6365 50.7111H49.6408C50.126 50.7111 50.5197 50.3178 50.5197 49.8322C50.5197 49.3469 50.126 48.9532 49.6408 48.9532Z" fill="black"/>
<path d="M59.1212 39.5187H46.5253C46.8366 38.2196 46.9959 36.8847 46.9959 35.5357C46.9959 31.3046 45.434 27.247 42.5986 24.1104C42.2732 23.7506 41.7174 23.7227 41.3572 24.0481C40.9974 24.3736 40.969 24.9293 41.2949 25.2896C43.8378 28.1021 45.2381 31.7413 45.2381 35.5357C45.2381 36.8889 45.0619 38.226 44.714 39.5187H22.999C22.5138 39.5187 22.1201 39.9124 22.1201 40.3976C22.1201 40.8833 22.5138 41.2765 22.999 41.2765H59.1212C59.6064 41.2765 60.0001 40.8833 60.0001 40.3976C60.0001 39.9124 59.6064 39.5187 59.1212 39.5187Z" fill="black"/>
<path d="M19.9379 40.3976C19.9379 39.9119 19.5442 39.5187 19.059 39.5187H15.1941C14.8466 38.2265 14.6681 36.888 14.6681 35.5357C14.6681 27.8792 20.3847 21.3634 27.9652 20.3792C28.4464 20.3169 28.786 19.8761 28.7233 19.3945C28.661 18.9134 28.2207 18.5738 27.7386 18.636C19.2851 19.7337 12.9103 26.9989 12.9103 35.5357C12.9103 36.8834 13.0692 38.2196 13.38 39.5187H0.878906C0.393677 39.5187 0 39.9119 0 40.3976C0 40.8829 0.393677 41.2765 0.878906 41.2765H19.059C19.5442 41.2765 19.9379 40.8829 19.9379 40.3976Z" fill="black"/>
</svg>
