<svg width="60" height="60" viewBox="0 0 60 60" fill="none" xmlns="http://www.w3.org/2000/svg">
<g clip-path="url(#clip0)">
<path d="M54.6995 47.7115C54.6995 46.717 54.3044 45.7632 53.6011 45.0599C52.8979 44.3566 51.9441 43.9615 50.9495 43.9615C49.9549 43.9615 49.0011 44.3566 48.2978 45.0599C47.5946 45.7632 47.1995 46.717 47.1995 47.7115H49.0745C49.0745 47.3407 49.1845 46.9782 49.3905 46.6699C49.5965 46.3615 49.8893 46.1212 50.232 45.9793C50.5746 45.8374 50.9516 45.8002 51.3153 45.8726C51.679 45.9449 52.0131 46.1235 52.2753 46.3857C52.5375 46.6479 52.7161 46.982 52.7885 47.3458C52.8608 47.7095 52.8237 48.0865 52.6818 48.4291C52.5399 48.7717 52.2995 49.0645 51.9912 49.2706C51.6828 49.4766 51.3203 49.5865 50.9495 49.5865L23.4375 49.5837V51.4587L50.9496 51.4614C51.9438 51.4603 52.8969 51.0648 53.5999 50.3618C54.3029 49.6589 54.6983 48.7057 54.6995 47.7115V47.7115Z" fill="black"/>
<path d="M7.42687 38.0599C9.43112 39.4708 11.6818 40.494 14.0625 41.0767V45H5.625V46.875H14.0625V60H15.9375V34.6875C15.9375 28.4023 17.7277 23.8304 17.7455 23.7857C17.7991 23.6515 17.8211 23.5067 17.8095 23.3626C17.798 23.2185 17.7533 23.0791 17.6789 22.9552L12.0539 13.5802L10.4461 14.5448L15.84 23.5348C15.3687 24.8789 14.0625 29.1054 14.0625 34.6875V39.1406C12.0753 38.5963 10.1971 37.7129 8.51063 36.5293C4.10754 33.411 1.875 28.6907 1.875 22.5C1.88967 17.9424 3.6448 13.5627 6.78151 10.2562C9.91822 6.94977 14.1995 4.96647 18.75 4.71188V10.3125C18.75 10.5118 18.8135 10.7059 18.9314 10.8666C19.0492 11.0274 19.2152 11.1464 19.4052 11.2064C19.5953 11.2664 19.7995 11.2643 19.9883 11.2004C20.177 11.1364 20.3405 11.014 20.455 10.8509C20.4709 10.8282 22.082 8.55633 24.8868 6.3225C28.3855 3.53602 32.0832 2.04645 35.8874 1.88895C36.0532 2.6168 36.2134 4.09359 35.653 6.33504C35.6097 6.50806 35.6166 6.68986 35.673 6.85908C35.7294 7.0283 35.8329 7.17793 35.9713 7.2904C36.1097 7.40287 36.2774 7.47351 36.4546 7.49403C36.6318 7.51455 36.8111 7.4841 36.9716 7.40625C37.0505 7.36805 44.7594 3.70828 51.6483 6.29484C51.8273 7.83668 52.1084 12.6615 49.2984 16.482C47.211 19.32 43.8354 21.0315 39.2654 21.5692C39.0749 21.5916 38.8959 21.6718 38.7524 21.7992C38.609 21.9265 38.508 22.0948 38.4632 22.2813C38.4184 22.4678 38.4319 22.6636 38.5019 22.8422C38.5718 23.0208 38.6949 23.1737 38.8545 23.2801C39.4774 23.6964 41.0625 24.9007 41.9258 26.0876C40.3029 27.5476 35.3032 31.6529 31.0915 30.9509C30.8955 30.9182 30.6943 30.9486 30.5167 31.0377C30.3392 31.1268 30.1945 31.27 30.1036 31.4466C30.0127 31.6233 29.9803 31.8242 30.011 32.0205C30.0417 32.2168 30.134 32.3982 30.2745 32.5386L32.5445 34.8086C31.5945 36.1566 30.4829 37.3832 29.2345 38.4609C26.4484 40.835 23.5554 41.8225 20.625 41.4046V34.6875C20.625 34.6707 20.625 34.6515 20.6235 34.6349C20.5532 33.3175 20.9399 29.8682 22.9104 26.2434C24.3551 23.5862 26.4143 21.2026 29.0316 19.159C32.329 16.584 36.5282 14.5418 41.512 13.0875L40.9875 11.2875C35.7398 12.8181 31.3062 14.9871 27.8095 17.7345C24.9853 19.9533 22.7636 22.5509 21.2052 25.4552C18.6236 30.2663 18.7304 34.286 18.75 34.7109V60H20.625V46.875H32.8125V45H20.625V43.295C21.0476 43.3446 21.4727 43.3696 21.8982 43.3699C24.8486 43.3699 27.78 42.1778 30.4929 39.8524C32.0677 38.498 33.4358 36.9204 34.5538 35.1698C34.6614 34.9906 34.706 34.7805 34.6805 34.573C34.6551 34.3655 34.561 34.1725 34.4132 34.0246L33.2168 32.8284C38.4863 32.1525 43.5437 27.1571 43.7879 26.9129C43.9271 26.7738 44.019 26.5944 44.0505 26.4002C44.0821 26.206 44.0517 26.0067 43.9637 25.8307C43.4568 24.8169 42.5026 23.8315 41.6452 23.0794C45.6777 22.2267 48.7541 20.3865 50.8092 17.5925C54.6607 12.3561 53.4742 5.73164 53.4218 5.45191C53.3933 5.29962 53.3275 5.15675 53.2303 5.0361C53.1331 4.91544 53.0076 4.82075 52.8648 4.76051C47.0072 2.28949 40.7283 3.9702 37.8101 5.03555C38.1836 2.20289 37.4954 0.705703 37.4014 0.5175C37.3234 0.36185 37.2037 0.230993 37.0555 0.139591C36.9073 0.0481894 36.7366 -0.000146132 36.5625 3.31867e-07C32.1308 3.31867e-07 27.6734 1.69195 23.6719 4.89293C22.5884 5.7611 21.57 6.70754 20.625 7.72465V3.75C20.625 3.50136 20.5262 3.2629 20.3504 3.08709C20.1746 2.91127 19.9361 2.8125 19.6875 2.8125C14.4705 2.82703 9.47137 4.90591 5.78239 8.59489C2.09341 12.2839 0.0145342 17.283 0 22.5C0 31.0125 4.03875 35.6602 7.42687 38.0599V38.0599Z" fill="black"/>
<path d="M55.3126 31.875C55.3126 30.9961 54.619 30.2591 53.2513 29.6848C52.3649 29.3126 51.3095 29.0625 50.6251 29.0625C49.4539 29.0625 46.4133 30.5769 45.5094 31.041C45.356 31.1197 45.2273 31.2392 45.1374 31.3864C45.0475 31.5335 45 31.7026 45 31.875C45 32.0474 45.0475 32.2165 45.1374 32.3636C45.2273 32.5108 45.356 32.6303 45.5094 32.709C46.4133 33.1731 49.4539 34.6875 50.6251 34.6875C51.3095 34.6875 52.3649 34.4374 53.2513 34.0652C54.619 33.4909 55.3126 32.7539 55.3126 31.875V31.875ZM50.6258 32.8125C50.2913 32.8063 49.2436 32.3979 48.0927 31.875C49.2436 31.352 50.2911 30.9437 50.6251 30.9375C51.3993 30.9375 52.9089 31.473 53.3583 31.875C52.9089 32.277 51.3994 32.8125 50.6258 32.8125Z" fill="black"/>
<path d="M36.4754 48.3694C36.9609 48.3694 37.5298 48.2364 38.182 47.9704C39.0721 47.6071 39.9952 47.0373 40.4789 46.5533C41.3071 45.7253 42.3863 42.5044 42.6973 41.5369C42.75 41.3727 42.7565 41.1972 42.716 41.0297C42.6755 40.8621 42.5896 40.709 42.4676 40.5871C42.3457 40.4652 42.1926 40.3792 42.025 40.3387C41.8574 40.2982 41.6819 40.3047 41.5178 40.3575C40.5504 40.6685 37.3296 41.7478 36.5015 42.5759C36.0175 43.0598 35.4479 43.9829 35.0844 44.8727C34.5234 46.2461 34.5542 47.2575 35.1756 47.8789C35.5027 48.2059 35.9371 48.3694 36.4754 48.3694V48.3694ZM37.827 43.9022C38.0678 43.6702 39.0974 43.218 40.281 42.774C39.837 43.9576 39.3851 44.987 39.1532 45.2276C38.6057 45.7751 37.1596 46.4639 36.5576 46.4974C36.5912 45.8953 37.2798 44.4492 37.827 43.9022V43.9022Z" fill="black"/>
<path d="M32.6623 22.7527C31.5405 22.4166 28.1932 22.9948 27.1941 23.1799C27.0246 23.2113 26.867 23.2889 26.7387 23.4041C26.6104 23.5192 26.5164 23.6676 26.4669 23.8327C26.4174 23.9979 26.4145 24.1735 26.4583 24.3402C26.5022 24.5069 26.5912 24.6583 26.7155 24.7778C27.4483 25.4818 29.9264 27.8052 31.0483 28.1411C31.623 28.2888 32.215 28.3581 32.8083 28.3471C33.1204 28.3474 33.4323 28.3313 33.7428 28.2987C35.2178 28.1411 36.0937 27.6342 36.3458 26.7922C36.598 25.9501 36.1452 25.0453 34.9998 24.1027C34.2574 23.4916 33.3181 22.9492 32.6623 22.7527V22.7527ZM31.5869 26.3452C31.2682 26.2433 30.3819 25.5516 29.4294 24.7202C30.6821 24.5496 31.8026 24.459 32.1248 24.5488C32.8665 24.7714 34.1589 25.7174 34.474 26.2314C33.9277 26.4873 32.3281 26.5673 31.587 26.3453L31.5869 26.3452Z" fill="black"/>
<path d="M57.7366 23.1158C58.5648 22.2878 59.644 19.0669 59.955 18.0994C60.0077 17.9352 60.0142 17.7597 59.9737 17.5922C59.9332 17.4246 59.8472 17.2715 59.7253 17.1496C59.6034 17.0277 59.4503 16.9417 59.2827 16.9012C59.1151 16.8607 58.9396 16.8672 58.7755 16.92C57.8081 17.231 54.5873 18.3103 53.7592 19.1384C52.9872 19.9104 51.0645 23.0728 52.4333 24.4417C52.7601 24.7684 53.195 24.9319 53.7329 24.9319C54.2185 24.9319 54.7873 24.7989 55.4395 24.5328C56.3297 24.1692 57.2528 23.5998 57.7366 23.1158V23.1158ZM55.0844 20.4647C55.3253 20.2327 56.3549 19.7805 57.5385 19.3365C57.0944 20.5201 56.6426 21.5495 56.4106 21.7901C55.8633 22.3376 54.4172 23.0263 53.8151 23.0599C53.8488 22.4578 54.5374 21.0117 55.0844 20.4647V20.4647Z" fill="black"/>
<path d="M29.5825 12.9675C29.7183 12.877 29.8281 12.7527 29.9011 12.6068L33.6511 5.10678L31.974 4.26819L28.3343 11.5475C22.7361 15.3532 19.0629 20.8092 18.9075 21.0424L20.4676 22.0824C20.504 22.0278 24.1758 16.5718 29.5825 12.9675Z" fill="black"/>
<path d="M25.3125 56.25H34.6875V58.125H25.3125V56.25Z" fill="black"/>
<path d="M0 53.3203H9.375V55.1953H0V53.3203Z" fill="black"/>
<path d="M46.875 55.6641H60V57.5391H46.875V55.6641Z" fill="black"/>
</g>
<defs>
<clipPath id="clip0">
<rect width="60" height="60" fill="white"/>
</clipPath>
</defs>
</svg>
